<?xml version="1.0" encoding="UTF-8" standalone="no"?>
<!-- Created with Inkscape (http://www.inkscape.org/) -->

<svg
   xmlns:svg="http://www.w3.org/2000/svg"
   xmlns="http://www.w3.org/2000/svg"
   version="1.2"
   width="900"
   height="900"
   id="svg2">
  <defs
     id="defs4">
    <marker
       refX="0"
       refY="0"
       orient="auto"
       id="Arrow2Lend"
       style="overflow:visible">
      <path
         d="M 8.7185878,4.0337352 -2.2072895,0.01601326 8.7185884,-4.0017078 c -1.7454984,2.3720609 -1.7354408,5.6174519 -6e-7,8.035443 z"
         transform="matrix(-1.1,0,0,-1.1,-1.1,0)"
         id="path4108"
         style="font-size:12px;fill-rule:evenodd;stroke-width:0.625;stroke-linejoin:round" />
    </marker>
  </defs>
  <g
     transform="translate(0,-152.3622)"
     id="layer1">
    <path
       d="m 399.08896,346.48452 c -3.64994,11.42495 -4.51467,24.40383 -4.51467,36.86985 0,5.73416 -3.83785,35.28934 0.75244,39.87964 14.99116,14.99116 49.41128,-50.66404 17.30626,-82.76906 -7.31904,-7.31904 -10.76085,0.7728 -13.54403,6.01957 z"
       id="path4970"
       style="fill:#ffce9a;fill-opacity:1;stroke:#ffce9a;stroke-width:1px;stroke-linecap:butt;stroke-linejoin:miter;stroke-opacity:1" />
    <path
       d="m 353.93389,244.2615 c -31.7897,-3.97449 -63.7766,-8.07932 -94.65856,-16.88606 -32.89589,-6.10907 -51.95809,-40.49959 -84.58801,-46.27348 -38.11739,38.66689 -63.38011,87.91479 -83.117753,137.97838 -52.692658,141.53968 -68.697473,295.50079 -56.164155,445.5545 10.166362,93.8969 29.21596,194.36802 93.574938,267.39876 l 4.12972,-1.5326 c 12.6727,-10.9424 25.79851,-19.4779 39.98712,-27.9911 20.91531,-12.54918 61.19545,-41.44727 86.31058,-40.80041 8.18357,0.21078 102.45493,-10.77663 119.26214,-29.06265 5.59433,-6.08655 -4.39564,-113.77714 -6.96998,-124.0745 l 0,-3.33227 c -7.13429,-85.06636 -1.07392,-196.30642 19.32711,-277.91054 l 0.66646,-3.33226 c 10.55803,-75.24979 29.50329,-133.47501 -25.32519,-199.26918 l -13.32903,-15.3284 c -5.42175,-18.62011 14.98152,-58.26047 0.89461,-65.13819 z"
       id="path3735"
       style="fill:#cffcfb;fill-opacity:1;stroke:#b7dde0;stroke-width:2.5;stroke-linecap:butt;stroke-linejoin:miter;stroke-miterlimit:4;stroke-opacity:1;stroke-dasharray:none" />
    <path
       d="m 222.79316,968.07623 c 22.18233,31.62709 65.47651,-0.0829 101.80753,-14.22419 4.99417,-1.94391 -6.28009,-22.44063 -7.14516,-24.29353 -25.62471,-54.88563 -29.20489,-148.16735 -28.38837,-233.77794 0.45636,-47.84802 11.24668,-85.88826 22.67224,-136.34117 7.55082,-33.34289 48.73594,-123.87909 37.15482,-158.62247 -4.52599,-13.57798 -15.94372,-18.80178 -25.72257,-28.58062 -54.10818,-54.10819 -110.28575,33.36841 -131.47087,75.73865 -75.50257,151.00513 -86.3239,396.96886 31.09238,520.10127 z"
       id="path3870"
       style="fill:#fed5fc;fill-opacity:1;stroke:#ea97e8;stroke-width:2.5;stroke-linecap:butt;stroke-linejoin:miter;stroke-miterlimit:4;stroke-opacity:1;stroke-dasharray:none" />
    <path
       d="m 339.37846,277.13616 c 19.47592,-18.57771 13.00922,-84.88609 51.31186,-64.71501 30.9169,1.16532 62.38927,25.08649 34.17448,53.68264 -3.14849,5.96098 -6.1803,12.04543 -8.04273,18.55117"
       id="path3693"
       style="fill:#ce9bce;fill-opacity:1;stroke:#b568b5;stroke-width:2.5;stroke-linecap:butt;stroke-linejoin:miter;stroke-miterlimit:4;stroke-opacity:1;stroke-dasharray:none" />
    <path
       d="m 241.07127,946.5321 c 24.60616,10.94926 33.59197,39.93604 1.75028,44.32197 -35.08448,15.74143 -70.1904,31.91873 -107.26261,42.49623 -13.44388,-0.5711 -5.15694,-16.9236 -8.82265,-24.4163 l 0.45765,-4.0271 C 99.109055,954.9067 230.15532,930.16528 241.07127,946.5321 z"
       id="path3733"
       style="fill:#cfcfcf;fill-opacity:1;stroke:#a0a0a0;stroke-width:2.5;stroke-linecap:butt;stroke-linejoin:miter;stroke-miterlimit:4;stroke-opacity:1;stroke-dasharray:none" />
    <path
       d="m 417.76037,426.77005 c -33.82332,165.88846 -56.16079,337.31427 -29.47166,505.95762 -27.1839,9.19395 -22.66765,-54.32117 -26.52644,-76.72023 -4.90411,-126.08516 8.92476,-252.16204 26.07956,-376.9069 2.86453,-20.92128 6.53764,-46.14305 26.21205,-58.05083 2.90125,-0.0985 3.3794,3.77993 3.70649,5.72034 z"
       id="path3748"
       style="fill:#eabffe;fill-opacity:1;stroke:#9f6ab6;stroke-width:2.5;stroke-linecap:butt;stroke-linejoin:miter;stroke-miterlimit:4;stroke-opacity:1;stroke-dasharray:none" />
    <path
       d="m 280.55654,973.33896 c 15.54012,-7.12868 6.12339,-2.91356 26.86541,-12.63418 -22.79961,-37.07086 -40.79935,-128.25283 -40.81543,-170.45533 -7.48293,-79.78938 4.59375,-158.7095 24.23634,-236.6664 6.48175,-24.72394 10.56407,-43.50189 18.69454,-66.5973 25.58177,-82.71398 22.07448,-50.22921 0.11672,-68.90751 -6.5867,-14.44115 -35.3695,61.65458 -42.6907,86.44048 -9.319,41.98358 -21.54271,86.41904 -27.45606,127.57139 -6.48843,47.62718 -6.94038,95.84327 -3.14693,142.70006 6.22597,59.68999 8.47577,79.59747 23.5727,137.78412 1.53387,7.2773 16.91532,54.20055 20.62341,60.76467 z"
       id="path4947"
       style="fill:#ff2121;fill-opacity:1;stroke:#580707;stroke-width:2.5;stroke-linecap:butt;stroke-linejoin:miter;stroke-miterlimit:4;stroke-opacity:1;stroke-dasharray:none" />
    <path
       d="m 277.2284,547.08013 c 7.59079,-34.67705 27.89293,-70.8477 31.71013,-107.75439 -8.96999,-8.895 -22.58058,56.4019 -33.00624,80.53571 -0.28204,8.31388 -13.18042,27.7805 1.29611,27.21868 z"
       id="path3758"
       style="fill:#ffff7d;fill-opacity:1;stroke:#bfb748;stroke-width:2.5;stroke-linecap:butt;stroke-linejoin:miter;stroke-miterlimit:4;stroke-opacity:1;stroke-dasharray:none" />
    <path
       d="m 105.15612,365.79766 c 3.84809,-19.03932 12.52121,-41.71075 21.18295,-58.93185 5.61804,2.50175 61.44847,-11.34592 68.96298,-13.85076 24.63899,-8.21299 63.00433,12.67711 85.94595,15.13514 6.99849,0.74983 38.17026,-0.31218 42.7027,6.48648 5.74512,8.61768 4.21248,21.11843 3.24324,30.81081 -4.73226,47.32259 -33.43895,33.97949 -52.43243,52.97298 -11.5174,11.51739 3.17809,31.73343 -23.24324,40.54054 -26.95395,8.98464 -62.98705,-6.22091 -88.10811,-14.5946 -31.68084,-10.56028 -48.6816,-22.93836 -58.25404,-58.56874 z"
       id="path3768"
       style="fill:#cfcfcf;fill-opacity:1;stroke:#a0a0a0;stroke-width:2.5;stroke-linecap:butt;stroke-linejoin:miter;stroke-miterlimit:4;stroke-opacity:1;stroke-dasharray:none" />
    <path
       d="m 63.853252,521.69945 c 0.03924,-16.91816 5.161198,-33.77913 14.645535,-47.79771 l 2.749207,-0.88669 c 50.336406,-16.06686 92.514416,-4.44985 135.675676,24.32432 7.78842,5.19229 23.58024,2.63042 25.94595,10.27028 15.76745,50.91962 -17.01325,61.7643 -42.7027,67.56756 -24.36402,5.50384 -36.07755,-1.29293 -61.08109,-4.86486 -35.619,-5.08843 -52.793723,-30.69942 -75.232578,-48.6129 z"
       id="path3772"
       style="fill:#cfcfcf;fill-opacity:1;stroke:#a0a0a0;stroke-width:2.5;stroke-linecap:butt;stroke-linejoin:miter;stroke-miterlimit:4;stroke-opacity:1;stroke-dasharray:none" />
    <path
       d="m 52.969498,706.49625 c -8.039624,-23.88166 -7.27462,-50.7743 1.086956,-74.45652 21.361707,-0.5033 148.273796,9.62632 152.596946,18.27262 4.64603,9.29206 3.78379,25.86884 3.78379,36.21621 0,9.63156 1.36745,22.67049 -2.70271,30.81081 -12.72966,25.45934 -139.981834,1.33302 -154.764982,-10.84312 z"
       id="path3774"
       style="fill:#cfcfcf;fill-opacity:1;stroke:#a0a0a0;stroke-width:2.5;stroke-linecap:butt;stroke-linejoin:miter;stroke-miterlimit:4;stroke-opacity:1;stroke-dasharray:none" />
    <path
       d="M 85.034717,903.23538 C 69.740811,882.6265 52.058385,856.14018 58.947759,829.32233 72.974179,812.85908 105.22703,819.51114 126.6534,815.17721 297.06206,780.7085 203.04414,956.7522 85.034717,903.23538 z"
       id="path3784"
       style="fill:#cfcfcf;fill-opacity:1;stroke:#b1a7b0;stroke-width:2.5;stroke-linecap:butt;stroke-linejoin:miter;stroke-miterlimit:4;stroke-opacity:1;stroke-dasharray:none" />
    <path
       d="m 205.54387,670.36925 c -55.20093,27.69967 -122.850892,-0.50246 -159.398498,-45.86467 23.478602,-29.98084 3.492955,-71.59221 15.962097,-101.82384 29.907828,0.32486 53.926191,27.47428 84.860451,29.49121 29.99407,5.65489 60.69029,2.85415 90.90678,6.16722 4.01565,34.21694 -30.62653,61.54872 -20.4408,96.34994 1.08744,7.56066 -2.26456,17.53105 -11.89003,15.68014 z"
       id="path3713"
       style="fill:#ffce9a;fill-opacity:1;stroke:#f1b67e;stroke-width:2.5;stroke-linecap:butt;stroke-linejoin:miter;stroke-miterlimit:4;stroke-opacity:1;stroke-dasharray:none" />
    <path
       d="m 66.088087,835.38894 c 24.83384,22.45566 58.625073,18.44632 88.302453,10.77789 31.33059,-1.55823 74.50249,-20.47806 53.98882,-58.41856 -10.4305,-26.1057 26.22927,-65.60956 -11.3113,-77.19433 -33.40947,-6.86491 -69.67242,20.31726 -101.137353,-1.45632 -30.272817,-21.7902 -62.194918,6.92497 -45.181304,39.75627 15.774128,28.6029 -10.328453,65.75038 15.338684,86.53505 z"
       id="path3711"
       style="fill:#ffce9a;fill-opacity:1;stroke:#f0b369;stroke-width:2.5;stroke-linecap:butt;stroke-linejoin:miter;stroke-miterlimit:4;stroke-opacity:1;stroke-dasharray:none" />
    <path
       d="M 125.84462,1008.7151 C 98.205687,982.89573 95.254997,936.3074 84.283363,904.02381 c 26.465627,-14.26316 62.554947,-3.63767 88.071117,-25.36705 19.20589,-13.18648 54.64983,-30.04142 52.6487,7.65924 4.66745,29.27036 37.96306,70.16781 -7.19321,83.45922 -34.07359,6.52608 -55.495,44.97068 -91.96535,38.93988 z"
       id="path3709"
       style="fill:#ffce9a;fill-opacity:1;stroke:#f0b369;stroke-width:2.5;stroke-linecap:butt;stroke-linejoin:miter;stroke-miterlimit:4;stroke-opacity:1;stroke-dasharray:none" />
    <path
       d="m 321.04957,324.06163 c 77.45928,127.03048 117.02005,-69.53441 0,0 z"
       id="path3878"
       style="fill:#ffce9a;fill-opacity:1;stroke:#ffce9a;stroke-width:1px;stroke-linecap:butt;stroke-linejoin:miter;stroke-opacity:1" />
    <path
       d="m 174.52765,213.99336 c 22.76509,20.20528 139.04252,86.92002 153.64358,41.93889 18.72691,-57.69151 -191.24726,-85.38066 -153.64358,-41.93889"
       id="path6829"
       style="color:#000000;fill:#ea772b;fill-opacity:1;fill-rule:nonzero;stroke:#000000;stroke-width:1.05297995px;stroke-linecap:butt;stroke-linejoin:miter;stroke-miterlimit:4;stroke-opacity:0;stroke-dasharray:none;stroke-dashoffset:0;marker:none;visibility:visible;display:inline;overflow:visible;enable-background:accumulate" />
    <path
       d="m 125.09274,304.20383 c 4.17285,41.07365 53.07855,51.06814 84.72711,64.49706 30.93315,18.22382 75.5411,27.07483 89.97355,-14.579 25.59279,-33.3485 66.44583,19.58178 86.05435,-20.63393 18.98046,-8.03333 47.75631,-14.8918 32.30133,-43.94761 -10.68936,-39.16117 -48.74376,-35.23886 -73.85153,-12.97524 -22.44998,5.03698 -1.68956,-35.08884 -28.69962,-21.99649 -44.5005,0.4531 -87.57071,-18.54131 -120.47318,-47.71587 -37.71393,-18.73611 -40.67036,33.22235 -51.77297,55.94245 -5.87251,13.8966 -12.26148,27.56661 -18.25904,41.40863 z m 278.59271,21.94214 c 45.74983,2.93013 51.34899,63.62321 23.94495,89.31852 -9.58512,18.41044 -41.10284,27.10388 -46.89856,0.76942 -17.55835,38.09795 -77.50772,-13.40969 -39.48707,-36.64365 6.32196,-18.3241 -17.7283,-27.27196 -30.40985,-33.31523 m 25.53602,45.14685 c 15.50238,3.77631 38.68969,9.67992 37.59398,30.07519 m 30.07519,-1.50376 c 19.49533,-18.66382 29.41568,-54.28055 9.02256,-75.93985 m -12.78196,-31.57895 c 3.42863,-15.57119 -5.45842,-32.14318 -19.54887,-39.09774"
       id="path3661"
       style="fill:#ffce9a;fill-opacity:1;stroke:#f8b674;stroke-width:2.5;stroke-linecap:butt;stroke-linejoin:miter;stroke-miterlimit:4;stroke-opacity:1;stroke-dasharray:none" />
    <text
       x="546.05304"
       y="633.10065"
       transform="scale(0.99998791,1.0000121)"
       id="text3892"
       xml:space="preserve"
       style="font-size:38.26969528px;font-style:normal;font-weight:normal;fill:#000000;fill-opacity:1;stroke:none;font-family:Bitstream Vera Sans"><tspan
         x="546.05304"
         y="633.10065"
         id="tspan3894">Epidural space</tspan></text>
    <text
       x="545.73022"
       y="499.94818"
       transform="scale(1.029151,0.97167471)"
       id="text3896"
       xml:space="preserve"
       style="font-size:36px;font-style:normal;font-weight:normal;fill:#000000;fill-opacity:1;stroke:none;font-family:Bitstream Vera Sans"><tspan
         x="545.73022"
         y="499.94818"
         id="tspan3898">Spinal cord</tspan></text>
    <path
       d="m 271.70929,412.47451 c -32.15684,35.03943 -76.02389,-24.832 -113.16598,-19.93088 -25.19969,-1.03624 -56.63059,-59.14162 -58.714455,-9.02173 4.965555,37.46751 -39.911924,72.66194 -11.918538,106.02895 31.760883,30.45156 79.454523,39.14338 122.070603,37.53088 47.90439,-1.05268 40.0495,-62.94087 61.20463,-92.87541 5.79329,-5.52951 5.56913,-15.86078 0.52374,-21.73181 z"
       id="path3717"
       style="fill:#ffce9a;fill-opacity:1;stroke:#f1b67e;stroke-width:2.5;stroke-linecap:butt;stroke-linejoin:miter;stroke-miterlimit:4;stroke-opacity:1;stroke-dasharray:none" />
    <path
       d="m 309.49124,454.32234 c 18.73447,-25.99278 59.11849,-71.38394 28.26087,-100.54349 -29.10163,0.70843 -39.71489,37.10482 -34.6079,62.18557 -2.64343,12.18775 -13.92039,37.73752 6.34703,38.35792 z"
       id="path3764"
       style="fill:#ffff7d;fill-opacity:1;stroke:#bfb748;stroke-width:2.5;stroke-linecap:butt;stroke-linejoin:miter;stroke-miterlimit:4;stroke-opacity:1;stroke-dasharray:none" />
    <path
       d="m 315.24985,427.85381 c -14.67757,-8.10358 -20.67455,-39.90053 -51.0336,-10.52787 -21.73511,17.38131 -36.91905,7.25634 -8.10872,-6.94343 27.20355,-18.00654 43.32455,-52.04703 54.21265,-62.4326 36.28692,13.426 6.1144,33.10231 -6.77812,45.75813 -0.53228,23.49429 28.65046,17.93655 11.70779,34.14577 z"
       id="path3719"
       style="fill:#ffff7d;fill-opacity:1;stroke:#bfb748;stroke-width:2.5;stroke-linecap:butt;stroke-linejoin:miter;stroke-miterlimit:4;stroke-opacity:1;stroke-dasharray:none" />
    <path
       d="m 331.10778,467.36173 c -11.6518,30.7771 -16.59968,77.2366 23.4963,88.91514 44.58648,10.89157 53.21474,-46.57551 29.75847,-73.33245 -9.04337,-18.47785 -36.70196,-33.9514 -53.25477,-15.58269 z"
       id="path3695"
       style="fill:#ffce9a;fill-opacity:1;stroke:#f1b67e;stroke-width:2.5;stroke-linecap:butt;stroke-linejoin:miter;stroke-miterlimit:4;stroke-opacity:1;stroke-dasharray:none" />
    <path
       d="m 295.76944,659.84293 c -11.81809,-32.27131 11.65135,-89.06295 51.58165,-60.61906 35.44065,12.67621 41.79199,71.52424 1.64103,80.81597 -19.26915,2.659 -41.08085,-4.62377 -53.22268,-20.19691 z"
       id="path3699"
       style="fill:#ffce9a;fill-opacity:1;stroke:#f1b67e;stroke-width:2.5;stroke-linecap:butt;stroke-linejoin:miter;stroke-miterlimit:4;stroke-opacity:1;stroke-dasharray:none" />
    <path
       d="m 288.25064,779.3918 c -22.13735,-32.53731 -0.923,-96.03885 45.38739,-71.47391 41.2484,9.0254 46.68328,68.05531 3.83694,78.13044 -16.5657,3.87762 -33.69321,-0.94345 -49.22433,-6.65653 z"
       id="path3703"
       style="fill:#ffce9a;fill-opacity:1;stroke:#f0b369;stroke-width:2.5;stroke-linecap:butt;stroke-linejoin:miter;stroke-miterlimit:4;stroke-opacity:1;stroke-dasharray:none" />
    <path
       d="m 304.04011,907.21135 c -20.71675,-30.02813 -19.81306,-88.30584 25.30462,-93.49293 40.54525,-1.15115 54.85956,55.64362 31.29969,82.07514 -15.87395,14.79635 -37.90382,7.82187 -56.60431,11.41779 z"
       id="path3705"
       style="fill:#ffce9b;fill-opacity:1;stroke:#f0b369;stroke-width:2.5;stroke-linecap:butt;stroke-linejoin:miter;stroke-miterlimit:4;stroke-opacity:1;stroke-dasharray:none" />
    <path
       d="M 432.66804,861.12262 264.56176,845.46798"
       id="path3900-8"
       style="fill:none;stroke:#000000;stroke-width:2.5;stroke-linecap:butt;stroke-linejoin:miter;stroke-miterlimit:4;stroke-opacity:1;stroke-dasharray:none;marker-start:none;marker-end:url(#Arrow2Lend)" />
    <path
       d="M 534.37021,621.08528 302.79692,576.43688"
       id="path3900-4"
       style="fill:none;stroke:#000000;stroke-width:2.48184419;stroke-linecap:butt;stroke-linejoin:miter;stroke-miterlimit:4;stroke-opacity:1;stroke-dasharray:none;marker-start:none;marker-end:url(#Arrow2Lend)" />
    <path
       d="M 553.00118,466.07103 317.07092,398.00962"
       id="path3900"
       style="fill:none;stroke:#000000;stroke-width:2.5;stroke-linecap:butt;stroke-linejoin:miter;stroke-miterlimit:4;stroke-opacity:1;stroke-dasharray:none;marker-start:none;marker-end:url(#Arrow2Lend)" />
    <text
       x="115.26047"
       y="619.46753"
       id="text6821"
       xml:space="preserve"
       style="font-size:40px;font-style:normal;font-weight:normal;fill:#000000;fill-opacity:1;stroke:none;font-family:Bitstream Vera Sans"><tspan
         x="115.26047"
         y="619.46753"
         id="tspan6823">L3</tspan></text>
    <text
       x="111.06467"
       y="792.19482"
       id="text6825"
       xml:space="preserve"
       style="font-size:40px;font-style:normal;font-weight:normal;fill:#000000;fill-opacity:1;stroke:none;font-family:Bitstream Vera Sans"><tspan
         x="111.06467"
         y="792.19482"
         id="tspan6827">L4</tspan></text>
    <path
       d="m 275.74124,682.47451 316.25,46.25"
       id="path6831"
       style="fill:#666666;stroke:#333333;stroke-width:6;stroke-linecap:butt;stroke-linejoin:miter;stroke-miterlimit:4;stroke-opacity:1;stroke-dasharray:none" />
    <rect
       width="38.410378"
       height="21.683279"
       x="672.52258"
       y="629.46533"
       transform="matrix(0.99065021,0.1364264,-0.1364264,0.99065021,0,0)"
       id="rect6833"
       style="fill:#666666;fill-opacity:1;stroke:#333333;stroke-width:6;stroke-linecap:butt;stroke-miterlimit:4;stroke-opacity:0;stroke-dasharray:none" />
    <g
       transform="translate(-15.508763,212.47451)"
       id="layer2" />
    <rect
       width="17.695717"
       height="9.9895182"
       x="664.00317"
       y="635.68091"
       transform="matrix(0.99065021,0.1364264,-0.1364264,0.99065021,0,0)"
       id="rect6833-8"
       style="fill:#666666;fill-opacity:1;stroke:#333333;stroke-width:2.76420856;stroke-linecap:butt;stroke-miterlimit:4;stroke-opacity:0;stroke-dasharray:none" />
    <rect
       width="17.695717"
       height="9.9895182"
       x="701.58118"
       y="636.00012"
       transform="matrix(0.99065021,0.1364264,-0.1364264,0.99065021,0,0)"
       id="rect6833-8-2"
       style="fill:#666666;fill-opacity:1;stroke:#333333;stroke-width:2.76420856;stroke-linecap:butt;stroke-miterlimit:4;stroke-opacity:0;stroke-dasharray:none" />
    <rect
       width="8.7323942"
       height="13.239436"
       x="653.76581"
       y="636.40997"
       transform="matrix(0.99114154,0.1328098,-0.1328098,0.99114154,0,0)"
       id="rect3104"
       style="color:#000000;fill:#666666;fill-opacity:1;fill-rule:nonzero;stroke:#333333;stroke-width:6;stroke-linecap:butt;stroke-linejoin:miter;stroke-miterlimit:4;stroke-opacity:0;stroke-dasharray:none;stroke-dashoffset:0;marker:none;visibility:visible;display:inline;overflow:visible;enable-background:accumulate" />
    <rect
       width="8.7323942"
       height="21.12676"
       x="713.4314"
       y="633.85938"
       transform="matrix(0.99138069,0.13101271,-0.13101271,0.99138069,0,0)"
       id="rect3106"
       style="color:#000000;fill:#666666;fill-opacity:1;fill-rule:nonzero;stroke:#333333;stroke-width:6;stroke-linecap:butt;stroke-linejoin:miter;stroke-miterlimit:4;stroke-opacity:0;stroke-dasharray:none;stroke-dashoffset:0;marker:none;visibility:visible;display:inline;overflow:visible;enable-background:accumulate" />
    <text
       x="442.21652"
       y="873.00385"
       transform="scale(0.99998791,1.0000121)"
       id="text3892-4"
       xml:space="preserve"
       style="font-size:38.26969528px;font-style:normal;font-weight:normal;fill:#000000;fill-opacity:1;stroke:none;font-family:Bitstream Vera Sans"><tspan
         x="442.21652"
         y="873.00385"
         id="tspan3894-5">Subarachnoid space</tspan></text>
  </g>
</svg>
